<svg width="52" height="43" viewBox="0 0 52 43" fill="none" xmlns="http://www.w3.org/2000/svg">
<path d="M23.9895 8.74527C23.9895 7.72005 23.037 6.69482 22.0846 6.69482C21.1321 6.69482 20.1797 7.72005 20.1797 8.74527C20.1797 9.77049 21.1321 10.7957 22.0846 10.7957C23.037 10.7957 23.7514 9.77049 23.9895 8.74527Z" fill="#FF2853"/>
<path d="M41.3721 0.799805H19.2276C18.9895 0.799805 18.7514 0.799805 18.5133 1.05611L0.178584 19.5101C-0.0595281 20.0227 -0.0595281 20.5353 0.178584 21.0479L10.6555 32.838C11.1318 33.3506 11.608 33.3506 12.0842 32.838L14.7034 30.0186C15.1797 29.506 15.1797 28.9934 14.7034 28.4808L8.51252 21.3042C8.27441 20.7916 8.27441 20.279 8.51252 19.7664L18.5133 9.77049C18.5133 9.51419 18.2751 9.00158 18.2751 8.74527C18.2751 6.69483 19.9419 4.90069 21.8468 5.157C23.7517 5.157 25.4185 6.95113 25.1804 9.00158C25.1804 11.052 23.5136 12.8462 21.6087 12.5899C21.3706 12.3335 20.8944 12.3335 20.4182 12.0772C20.4182 12.0772 20.4182 12.3335 20.18 12.3335L12.3223 20.0227C11.8461 20.279 11.8461 21.0479 12.3223 21.3042L16.6083 26.4303C17.0846 26.943 17.5608 26.943 18.037 26.4303L42.0864 2.59394C42.8007 2.08133 42.3245 0.799805 41.3721 0.799805Z" fill="#FF2853"/>
<path d="M27.084 34.632C27.084 35.6572 28.0364 36.6824 28.9889 36.6824C29.9413 36.6824 30.8938 35.6572 30.8938 34.632C30.8938 33.6068 29.9413 32.5815 28.9889 32.5815C28.0364 32.5815 27.084 33.6068 27.084 34.632Z" fill="#FF2853"/>
<path d="M9.70281 42.5774H31.8473C32.0854 42.5774 32.3235 42.5774 32.5616 42.3211L50.8963 23.8671C51.3725 23.3545 51.3725 22.8419 50.8963 22.3293L40.4193 10.5392C39.9431 10.0266 39.4669 10.0266 38.9907 10.5392L36.3714 13.3586C35.8952 13.8712 35.8952 14.3838 36.3714 14.8964L42.5623 22.3293C42.8005 22.8419 42.8005 23.3545 42.5623 23.8671L32.5616 33.863C32.5616 34.1193 32.7997 34.632 32.7997 34.8883C32.7997 36.9387 31.1329 38.7328 29.228 38.4765C27.3231 38.4765 25.6563 36.6824 25.8945 34.632C26.1326 32.5815 27.5612 30.7874 29.4661 31.0437C29.9424 31.0437 30.4186 31.3 30.8948 31.3C30.8948 31.3 30.8948 31.0437 31.1329 31.0437L38.9907 23.3545C39.4669 22.8419 39.4669 22.3293 38.9907 21.8167L34.7046 16.6906C34.2284 16.178 33.7522 16.178 33.276 16.6906L8.98847 40.7833C8.27413 41.2959 8.75036 42.5774 9.70281 42.5774Z" fill="#FF2853"/>
</svg>
